HIERARCHY
ROOT Hips
{
	OFFSET 0.00000 0.00000 0.00000
	CHANNELS 6 Xposition Yposition Zposition Yrotation Zrotation Xrotation 
	JOINT Lumbar
	{
		OFFSET 0 0 0
		CHANNELS 3 Zrotation Xrotation Yrotation
		JOINT Neck
		{
			OFFSET 0.00 0.2701 0.00
			CHANNELS 3 Zrotation Xrotation Yrotation
			End Site
			{
				OFFSET 0.00 0.1379 0.00
			}
		}
		JOINT RightShoulder
		{
			OFFSET 0.0119 0.2289 0.1181
			CHANNELS 3 Zrotation Xrotation Yrotation
			JOINT RightElbow
			{
				OFFSET 0.00 -0.1475 0.00
				CHANNELS 2 Zrotation Yrotation
				JOINT RightWrist
				{
					OFFSET 0.00 -0.1605 0.00
					CHANNELS 2 Zrotation Xrotation
					End Site
					{
						OFFSET 0.0040 -0.1068 0.0006
					}
				}
			}
		}
		JOINT LeftShoulder
		{
			OFFSET 0.0119 0.2289 -0.1181
			CHANNELS 3 Zrotation Xrotation Yrotation
			JOINT LeftElbow
			{
				OFFSET 0.00 -0.1475 0.00
				CHANNELS 2 Zrotation Yrotation
				JOINT LeftWrist
				{
					OFFSET 0.00 -0.1605 0.00
					CHANNELS 2 Zrotation Xrotation
					End Site
					{
						OFFSET 0.0040 -0.1068 -0.0006
					}
				}
			}
		}
	}
	JOINT RightHip
	{
		OFFSET 0.0316 -0.0424 0.0458
		CHANNELS 3 Zrotation Xrotation Yrotation
		JOINT RightKnee
		{
			OFFSET 0.00 -0.2438 0.00
			CHANNELS 1 Zrotation
			JOINT RightAnkle
			{
				OFFSET 0.00 -0.2449 0.00
				CHANNELS 3 Zrotation Xrotation Yrotation
				End Site
				{
					OFFSET 0.1237 -0.0542 0.0051
				}
			}
		}
	}
	JOINT LeftHip
	{
		OFFSET 0.0316 -0.0424 -0.0458
		CHANNELS 3 Zrotation Xrotation Yrotation
		JOINT LeftKnee
		{
			OFFSET 0.00 -0.2438 0.00
			CHANNELS 1 Zrotation
			JOINT LeftAnkle
			{
				OFFSET 0.00 -0.2449 0.00
				CHANNELS 3 Zrotation Xrotation Yrotation
				End Site
				{
					OFFSET 0.1237 -0.0542 -0.0051
				}
			}
		}
	}
}
MOTION
Frames: 11
Frame Time: 0.02
0.09585 0.00044 0.10246 39.15418 -21.28321 -12.84179 41.05953 7.16909 0.19965 -10.07606 -7.40106 -0.83079 -58.28016 -60.64381 49.77273 114.47773 106.31555 -40.81638 -6.30102 -29.67428 71.32859 87.10986 105.70954 -45.49511 -43.74829 -0.27738 34.12815 8.46664 -16.96755 -20.53533 -6.43853 -1.54995 -1.39649 47.21607 13.14614 1.5443 -42.83884 -6.63324 3.31681 2.37027
0.09561 0.00016 0.10257 39.10548 -21.27986 -12.92821 40.97324 7.31199 0.35551 -10.72968 -7.31186 -0.83079 -58.198 -60.17037 50.28269 114.28839 105.79557 -41.37915 -6.20832 -28.0638 69.09667 87.83774 106.62185 -47.31885 -41.11945 -0.24717 34.19727 8.54146 -16.94486 -20.6267 -6.43102 -1.54259 -1.39463 47.32775 13.22618 1.51275 -42.99435 -6.62397 3.33105 2.3761
0.09533 -0.00013 0.10263 39.1428 -21.22876 -13.01832 40.87339 7.48245 0.45618 -11.42404 -7.34385 -0.83079 -58.39581 -59.88178 50.31038 114.272 106.05024 -42.13216 -6.21713 -21.53926 66.73871 84.00891 107.32699 -50.20254 -37.40405 -0.1533 34.20656 8.61042 -16.92233 -20.71636 -6.42077 -1.54023 -1.39536 47.39367 13.30586 1.49716 -43.1484 -6.61532 3.33408 2.37687
0.09506 -0.00041 0.10272 39.15155 -21.20129 -13.10473 40.77725 7.63329 0.57973 -12.07562 -7.32977 -0.83079 -58.47353 -59.51659 50.53576 114.17731 105.9823 -42.80085 -6.18241 -17.54712 64.51907 82.39344 108.11533 -52.50865 -34.31536 -0.09039 34.24332 8.6792 -16.90414 -20.80404 -6.41253 -1.53729 -1.39574 47.48006 13.38328 1.47609 -43.29658 -6.60666 3.34052 2.37896
0.0948 -0.00073 0.10278 39.11595 -21.16516 -13.20057 40.6906 7.81393 0.71181 -12.83062 -7.27593 -0.83079 -58.5021 -59.11399 50.879 114.07377 105.74872 -43.45432 -6.13127 -12.38192 61.92299 80.27425 108.94968 -55.2023 -30.68408 -0.02033 34.27868 8.76073 -16.86859 -20.90422 -6.41026 -1.52848 -1.39367 47.56789 13.47224 1.4477 -43.47336 -6.5967 3.35418 2.38512
0.09452 -0.00096 0.10289 39.19339 -21.13633 -13.27752 40.58194 7.93948 0.81293 -13.37944 -7.33431 -0.83079 -58.70364 -58.83647 50.85523 114.03297 106.04955 -44.17638 -6.13984 -8.44231 60.0917 78.06855 109.64344 -57.35022 -27.91093 0.05027 34.30339 8.81402 -16.86838 -20.97788 -6.38318 -1.53154 -1.39607 47.64244 13.53617 1.43732 -43.59012 -6.58966 3.35021 2.3817
0.09421 -0.00093 0.10317 39.55843 -21.13423 -13.29851 40.40767 7.90162 0.84668 -13.35013 -7.67308 -0.83079 -59.35329 -58.84839 49.89421 114.11897 107.76534 -45.1745 -6.2967 -9.29016 60.43309 76.93784 109.94663 -57.68874 -27.86237 0.10957 34.30611 8.79066 -16.9704 -20.97541 -6.39709 -1.58006 -1.42163 47.68347 13.53635 1.48518 -43.5379 -6.59037 3.29906 2.35228
0.09387 -0.00081 0.10349 40.03453 -21.14196 -13.30063 40.21308 7.80818 0.85053 -13.11193 -8.12054 -0.83079 -60.16273 -58.98256 48.58484 114.26363 109.97509 -46.21394 -6.50934 -11.49488 61.54666 75.83219 110.12536 -57.44834 -28.69957 0.16676 34.30132 8.73891 -17.10701 -20.94672 -6.3712 -1.6384 -1.45 47.71387 13.51034 1.54881 -43.42577 -6.59405 3.23075 2.31356
0.09353 -0.00073 0.10379 40.46251 -21.1487 -13.31324 40.03343 7.74315 0.86517 -12.96803 -8.51872 -0.83079 -60.87745 -59.06848 47.45664 114.38553 111.88273 -47.14836 -6.69212 -12.93447 62.29434 74.56892 110.39427 -57.50721 -29.06767 0.22359 34.30484 8.7002 -17.22456 -20.93212 -6.2854 -1.68229 -1.46884 47.75456 13.49264 1.59671 -43.34331 -6.5965 3.17108 2.27962
0.09322 -0.00064 0.10411 40.88501 -21.13961 -13.31832 39.82998 7.6658 0.88949 -12.82679 -8.92174 -0.83079 -61.69728 -59.1298 46.21155 114.49808 114.14698 -48.44869 -6.89801 -14.82439 63.10654 73.75165 110.51131 -57.46296 -29.66747 0.28899 34.28623 8.66104 -17.35613 -20.90849 -6.50678 -1.76586 -1.52032 47.77151 13.48977 1.67974 -43.25071 -6.59847 3.10749 2.24316
0.09286 -0.00056 0.10439 41.34236 -21.16577 -13.33402 39.67048 7.60056 0.88749 -12.63165 -9.33752 -0.83079 -62.3295 -59.26916 45.13853 114.64029 115.77232 -48.99991 -7.06694 -16.17038 63.96146 72.08779 110.92134 -57.4661 -30.02368 0.33419 34.3119 8.61577 -17.46685 -20.89724 -6.10655 -1.77237 -1.50732 47.83484 13.45025 1.69512 -43.16478 -6.60213 3.04812 2.20979
